<svg width="24" height="24" viewBox="0 0 24 24" fill="none" xmlns="http://www.w3.org/2000/svg">
<path d="M12.0037 2.1001C16.019 2.1001 18.8996 5.37841 18.8996 9.63168V11.2313C18.8996 11.46 19.0929 11.7631 19.6201 12.3071C19.6877 12.3769 19.7514 12.4416 19.8905 12.5824C20.9717 13.6791 21.3996 14.3109 21.3996 15.3273C21.3996 15.7718 21.3477 16.1183 21.1319 16.5336C20.6757 17.4111 19.7086 17.9001 18.2628 17.9001L16.351 17.9011C15.7218 20.2336 14.2205 21.5003 11.9996 21.5003C9.755 21.5003 8.24553 20.2065 7.62841 17.8262L7.64761 17.9001H5.73645C4.24849 17.9001 3.27096 17.3978 2.83427 16.4895C2.64332 16.0923 2.59961 15.7699 2.59961 15.3273C2.59961 14.3109 3.02749 13.6791 4.10873 12.5824C4.2478 12.4416 4.31147 12.3769 4.37909 12.3071C4.90636 11.7631 5.09961 11.46 5.09961 11.2313V9.63168C5.09961 5.38007 7.98733 2.1001 12.0037 2.1001ZM14.4656 17.902H9.53364C9.98959 19.1486 10.7754 19.7003 11.9996 19.7003C13.2238 19.7003 14.0096 19.1486 14.4656 17.902ZM12.0037 3.9001C9.03607 3.9001 6.89961 6.32677 6.89961 9.63168V11.2313C6.89961 12.0839 6.51017 12.6947 5.67162 13.5599C5.59835 13.6355 5.5292 13.7057 5.39049 13.8462C4.64361 14.6037 4.39961 14.964 4.39961 15.3273C4.39961 15.5194 4.41316 15.6193 4.45653 15.7096C4.56383 15.9327 4.88951 16.1001 5.73645 16.1001H18.2628C19.0828 16.1001 19.4161 15.9316 19.5348 15.7033C19.5843 15.6082 19.5996 15.5056 19.5996 15.3273C19.5996 14.964 19.3556 14.6037 18.6087 13.8462C18.47 13.7057 18.4009 13.6355 18.3276 13.5599C17.4891 12.6947 17.0996 12.0839 17.0996 11.2313V9.63168C17.0996 6.32445 14.9694 3.9001 12.0037 3.9001Z" fill="#7B8FA3"/>
</svg>
