<svg width="24" height="24" viewBox="0 0 24 24" fill="none" xmlns="http://www.w3.org/2000/svg">
<path fill-rule="evenodd" clip-rule="evenodd" d="M11.1796 3H12.8205C13.8732 2.99999 14.7241 2.99998 15.4134 3.0563C16.1237 3.11434 16.7502 3.23713 17.3306 3.53286C18.2505 4.00157 18.9984 4.74948 19.4671 5.66938C19.7629 6.24979 19.8857 6.87626 19.9437 7.58658C20 8.27594 20 9.12678 20 10.1796L20 16.8135C20 17.505 20 18.0923 19.9575 18.5559C19.9147 19.0223 19.8183 19.5372 19.4966 19.9706C19.0579 20.5619 18.3854 20.9351 17.6515 20.9948C17.1136 21.0385 16.6256 20.8481 16.2071 20.6377C15.7912 20.4286 15.2928 20.118 14.7059 19.7522L12.7875 18.5566C12.2478 18.2203 12.1749 18.1905 12.1228 18.1786C12.042 18.1603 11.958 18.1603 11.8772 18.1786C11.8251 18.1905 11.7522 18.2203 11.2125 18.5566L9.29411 19.7522C8.70723 20.118 8.20881 20.4286 7.7929 20.6377C7.37441 20.8481 6.88642 21.0385 6.34847 20.9948C5.61461 20.9351 4.94214 20.5619 4.50337 19.9706C4.18173 19.5372 4.08527 19.0223 4.04248 18.5559C3.99996 18.0923 3.99998 17.505 4 16.8135L4 10.1795C3.99999 9.12677 3.99998 8.27593 4.05631 7.58658C4.11434 6.87626 4.23713 6.24979 4.53286 5.66938C5.00157 4.74948 5.74948 4.00157 6.66938 3.53286C7.24979 3.23713 7.87626 3.11434 8.58658 3.0563C9.27594 2.99998 10.1268 2.99999 11.1796 3ZM8.74944 5.04966C8.1628 5.09759 7.82883 5.18674 7.57736 5.31487C7.03378 5.59184 6.59184 6.03378 6.31487 6.57736C6.18674 6.82883 6.09759 7.1628 6.04966 7.74944C6.00078 8.34775 6 9.11673 6 10.2222V16.7663C6 17.5179 6.00101 18.0122 6.03412 18.3732C6.06252 18.6828 6.1071 18.7729 6.11161 18.7816C6.2063 18.9075 6.34999 18.9873 6.50691 19.0011C6.51665 19.0003 6.61668 18.9905 6.89456 18.8508C7.21843 18.688 7.63846 18.4274 8.27637 18.0298L10.1547 16.8592C10.1851 16.8403 10.2154 16.8213 10.2457 16.8024C10.6297 16.562 11.0087 16.3248 11.435 16.2281C11.807 16.1438 12.193 16.1438 12.565 16.2281C12.9913 16.3248 13.3703 16.562 13.7543 16.8024C13.7846 16.8213 13.8149 16.8403 13.8453 16.8592L15.7236 18.0298C16.3615 18.4274 16.7816 18.688 17.1054 18.8508C17.3833 18.9905 17.4833 19.0003 17.4931 19.0011C17.65 18.9873 17.7937 18.9075 17.8884 18.7816C17.8929 18.7729 17.9375 18.6828 17.9659 18.3732C17.999 18.0122 18 17.5179 18 16.7663V10.2222C18 9.11673 17.9992 8.34775 17.9503 7.74944C17.9024 7.1628 17.8133 6.82883 17.6851 6.57736C17.4082 6.03378 16.9662 5.59184 16.4226 5.31487C16.1712 5.18674 15.8372 5.09759 15.2506 5.04966C14.6522 5.00078 13.8833 5 12.7778 5H11.2222C10.1167 5 9.34776 5.00078 8.74944 5.04966Z" fill="#7B8FA3"/>
</svg>
