<svg width="24" height="24" viewBox="0 0 24 24" fill="none" xmlns="http://www.w3.org/2000/svg">
<path fill-rule="evenodd" clip-rule="evenodd" d="M6 6C5.44772 6 5 6.44772 5 7V15C5 15.5523 5.44772 16 6 16H8C8.55228 16 9 16.4477 9 17V18.9194L12.3753 16.2191C12.5526 16.0773 12.7729 16 13 16H18C18.5523 16 19 15.5523 19 15V7C19 6.44772 18.5523 6 18 6H6ZM3 7C3 5.34315 4.34315 4 6 4H18C19.6569 4 21 5.34315 21 7V15C21 16.6569 19.6569 18 18 18H13.3508L8.62469 21.7809C8.32452 22.021 7.91328 22.0678 7.56681 21.9013C7.22035 21.7348 7 21.3844 7 21V18H6C4.34315 18 3 16.6569 3 15V7Z" fill="#7B8FA3"/>
</svg>
