<svg width="24" height="24" viewBox="0 0 24 24" fill="none" xmlns="http://www.w3.org/2000/svg">
<path fill-rule="evenodd" clip-rule="evenodd" d="M11.9945 8.5987L10.6021 7.24916C9.76549 6.43834 8.76043 6 7.73438 6C5.67398 6 4 7.67257 4 9.71723C4 11.4248 4.88622 12.9047 6.48554 14.428C7.58476 15.4751 8.7796 16.34 10.0303 17.2455C10.6739 17.7113 11.3323 18.188 12.0001 18.7056C12.6473 18.2045 13.2892 17.7392 13.9191 17.2826C15.1773 16.3705 16.388 15.4929 17.4986 14.4335C19.1085 12.8979 20 11.4096 20 9.71723C20 7.67971 18.3377 6.0117 16.2872 6.00006C15.2008 6.02927 14.2005 6.45906 13.3865 7.24865L11.9945 8.5987ZM16.2656 4C19.4228 4 22 6.56027 22 9.71723C22 13.8875 18.2312 16.625 14.9478 19.01C14.3134 19.4708 13.697 19.9184 13.1296 20.3607C12.4655 20.8783 11.5345 20.8783 10.8704 20.3607C10.2868 19.9052 9.65477 19.4467 9.00618 18.9761C5.71638 16.5891 2 13.8926 2 9.71723C2 6.56027 4.57716 4 7.73438 4C9.35451 4 10.8414 4.69594 11.994 5.813C13.1594 4.68263 14.6435 4.03546 16.2656 4Z" fill="#FD5D60"/>
</svg>
